<svg xmlns="http://www.w3.org/2000/svg" width="50.599" height="35.419" viewBox="0 0 50.599 35.419"><defs><style>.a{fill:#fff;}</style></defs><path class="a" d="M39.684,25.21a6.325,6.325,0,1,0-6.325-6.325A6.306,6.306,0,0,0,39.684,25.21ZM20.71,22.68a7.59,7.59,0,1,0-7.59-7.59A7.558,7.558,0,0,0,20.71,22.68Zm18.975,7.59c-4.63,0-13.915,2.328-13.915,6.957v5.692H53.6V37.227C53.6,32.6,44.314,30.27,39.684,30.27ZM20.71,27.74C14.815,27.74,3,30.7,3,36.594v6.325H20.71V37.227c0-2.15.835-5.92,6-8.779A31.075,31.075,0,0,0,20.71,27.74Z" transform="translate(-3 -7.5)"/></svg>