<svg xmlns="http://www.w3.org/2000/svg" width="19.935" height="20.225" viewBox="0 0 19.935 20.225"><defs><style>.a{fill:#2e2e2e;}</style></defs><path class="a" d="M19.812,18.82l-2.525-2.562L19.812,13.7a.789.789,0,0,0,0-1.1.762.762,0,0,0-1.083,0L16.2,15.159,13.678,12.6a.726.726,0,0,0-1.083,0,.758.758,0,0,0,0,1.1l2.525,2.562L12.6,18.82a.771.771,0,1,0,1.083,1.1L16.2,17.357l2.525,2.562a.762.762,0,0,0,1.083,0A.78.78,0,0,0,19.812,18.82Z" transform="translate(-6.236 -6.145)"/><path class="a" d="M13.343,4.736a8.507,8.507,0,0,1,6.1,2.562,8.847,8.847,0,0,1,0,12.378,8.544,8.544,0,0,1-12.2,0,8.847,8.847,0,0,1,0-12.378,8.507,8.507,0,0,1,6.1-2.562m0-1.361A10.039,10.039,0,0,0,3.375,13.488,10.039,10.039,0,0,0,13.343,23.6,10.039,10.039,0,0,0,23.31,13.488,10.039,10.039,0,0,0,13.343,3.375Z" transform="translate(-3.375 -3.375)"/></svg>