<svg xmlns="http://www.w3.org/2000/svg" width="40.189" height="49.462" viewBox="0 0 40.189 49.462"><defs><style>.a{fill:#fff;}</style></defs><path class="a" d="M26.277,9.274A4.637,4.637,0,1,0,21.64,4.637,4.637,4.637,0,0,0,26.277,9.274ZM10.983,30.67l-1.43,3.335H3.091a3.091,3.091,0,1,0,0,6.183h7.482a4.627,4.627,0,0,0,4.261-2.81l.849-1.982-1.031-.609a9.2,9.2,0,0,1-3.67-4.116ZM37.1,21.639H32.844l-2.518-5.144a9.27,9.27,0,0,0-5.968-4.921L17.491,9.531a9.235,9.235,0,0,0-7.81,1.656L5.849,14.125a3.091,3.091,0,0,0,3.762,4.906l3.834-2.938a3.008,3.008,0,0,1,2.441-.593l1.42.422-3.619,8.443a6.2,6.2,0,0,0,2.541,7.759l8.21,4.847-2.654,8.475a3.091,3.091,0,1,0,5.9,1.847l3.057-9.763a4.656,4.656,0,0,0-2.091-5.255l-5.916-3.491,3.025-7.563,1.958,4a4.666,4.666,0,0,0,4.165,2.6H37.1a3.091,3.091,0,1,0,0-6.182Z"/></svg>